<?xml version="1.0" standalone="no"?>
<!DOCTYPE svg PUBLIC "-//W3C//DTD SVG 20010904//EN"
 "http://www.w3.org/TR/2001/REC-SVG-20010904/DTD/svg10.dtd">
<svg version="1.0" xmlns="http://www.w3.org/2000/svg"
 width="500.000000pt" height="500.000000pt" viewBox="0 0 500.000000 500.000000"
 preserveAspectRatio="xMidYMid meet">
<metadata>
Created by potrace 1.14, written by Peter Selinger 2001-2017
</metadata>
<g transform="translate(0.000000,500.000000) scale(0.100000,-0.100000)"
fill="#000000" stroke="none">
<path d="M825 4938 c-57 -32 -72 -74 -70 -200 l1 -88 -194 0 c-122 0 -210 -4
-234 -12 -57 -17 -133 -88 -155 -146 -17 -45 -18 -143 -17 -2137 1 -1505 5
-2101 13 -2131 17 -64 63 -119 123 -148 45 -21 68 -26 149 -27 91 -1 96 -2 95
-23 l-1 -21 1998 -3 1997 -2 0 25 c0 24 2 25 65 25 123 0 216 71 241 185 6 24
6 4028 0 4140 -2 44 -11 99 -21 123 -21 52 -100 124 -153 140 -24 8 -112 12
-233 12 l-194 0 -1 99 c0 56 -6 112 -13 130 -18 43 -68 71 -125 71 -39 0 -52
-6 -84 -34 l-37 -34 -3 -116 -4 -116 -268 0 -268 0 -4 116 -3 116 -37 34 c-32
28 -45 34 -84 34 -57 0 -107 -28 -124 -71 -7 -17 -13 -74 -14 -130 l0 -99
-268 0 -268 0 -1 38 c0 20 -1 64 0 96 0 33 -6 74 -13 91 -44 104 -212 99 -244
-7 -6 -18 -10 -67 -10 -108 0 -41 -1 -83 -1 -92 -1 -17 -21 -18 -269 -18
l-268 0 0 93 c0 105 -6 135 -31 164 -46 52 -132 60 -183 16 -44 -36 -51 -61
-51 -175 l0 -98 -269 0 -268 0 -4 116 -3 116 -37 34 c-32 29 -45 34 -85 34
-27 0 -57 -6 -68 -12z"/>
</g>
</svg>
