<?xml version="1.0" standalone="no"?>
<!DOCTYPE svg PUBLIC "-//W3C//DTD SVG 20010904//EN"
 "http://www.w3.org/TR/2001/REC-SVG-20010904/DTD/svg10.dtd">
<svg version="1.0" xmlns="http://www.w3.org/2000/svg"
 width="2304.000000pt" height="2304.000000pt" viewBox="0 0 2304.000000 2304.000000"
 preserveAspectRatio="xMidYMid meet">
<metadata>
Created by potrace 1.14, written by Peter Selinger 2001-2017
</metadata>
<g transform="translate(0.000000,2304.000000) scale(0.100000,-0.100000)"
fill="#000000" stroke="none">
<path d="M1505 18535 c-132 -42 -229 -150 -252 -280 -11 -63 -10 -4638 1
-4685 24 -100 17 -93 1357 -1434 1166 -1165 1302 -1305 1330 -1361 34 -71 41
-135 28 -270 -5 -44 -11 -118 -14 -165 -3 -47 -8 -101 -10 -120 -2 -19 -7 -69
-10 -110 -12 -149 -14 -176 -19 -225 -3 -27 -8 -84 -11 -125 -7 -93 -13 -156
-21 -240 -3 -36 -7 -87 -9 -115 -4 -48 -11 -136 -20 -235 -2 -25 -7 -81 -11
-125 -3 -44 -7 -96 -9 -115 -2 -19 -6 -71 -10 -115 -3 -44 -8 -96 -10 -115 -2
-19 -7 -69 -10 -110 -12 -160 -21 -260 -31 -365 -4 -38 -8 -86 -9 -105 -9
-125 -17 -229 -20 -250 -2 -14 -6 -63 -10 -110 -3 -47 -8 -101 -10 -120 -2
-19 -7 -75 -10 -125 -4 -49 -9 -101 -10 -115 -2 -14 -6 -68 -10 -120 -3 -52
-8 -106 -10 -120 -9 -52 -19 -208 -19 -285 0 -135 50 -218 199 -326 115 -85
338 -247 404 -295 63 -47 325 -238 356 -260 198 -144 354 -258 368 -269 9 -8
22 -15 27 -15 6 0 10 -3 10 -8 0 -4 21 -22 48 -39 26 -18 146 -105 267 -193
244 -179 440 -322 835 -610 146 -106 297 -216 335 -245 39 -28 135 -99 215
-157 80 -57 201 -146 270 -196 169 -124 498 -363 535 -389 52 -36 140 -56 220
-50 123 10 118 6 500 332 28 23 86 73 130 110 44 37 103 86 130 110 28 23 118
100 200 170 83 70 161 137 175 148 14 12 52 45 85 72 33 28 62 52 65 55 29 30
274 231 302 248 45 28 148 50 206 45 24 -2 69 -13 100 -25 64 -24 132 -88 354
-333 137 -152 160 -177 222 -245 22 -25 84 -92 136 -150 52 -58 100 -110 105
-116 6 -6 44 -48 85 -93 41 -46 86 -95 100 -110 39 -42 193 -211 212 -234 10
-11 55 -61 101 -111 46 -50 104 -113 128 -140 144 -161 194 -207 255 -237 107
-53 245 -47 343 16 33 20 126 111 237 230 20 22 105 112 188 199 83 88 162
172 176 186 28 30 147 156 289 306 53 55 164 172 246 259 83 87 168 177 190
200 22 23 96 101 164 173 159 169 217 206 334 216 57 4 116 -7 174 -34 36 -17
201 -148 338 -269 23 -20 65 -56 95 -81 29 -25 117 -99 194 -165 78 -66 184
-156 236 -200 52 -44 97 -82 100 -85 3 -3 30 -25 60 -50 30 -25 62 -52 70 -60
36 -34 317 -268 345 -287 41 -29 136 -55 197 -55 58 1 138 25 188 58 29 19
595 430 680 494 14 10 43 32 65 48 86 62 541 394 563 410 13 9 45 33 71 52 26
19 58 43 72 53 35 25 298 217 404 294 50 37 131 96 180 131 85 62 208 152 230
170 6 4 100 73 210 152 110 80 207 150 215 157 17 14 295 216 340 248 129 90
712 521 737 544 17 17 47 61 65 98 29 60 33 77 33 148 0 77 -11 250 -19 290
-2 11 -7 70 -11 130 -4 61 -8 112 -10 115 -2 3 -6 50 -9 105 -4 56 -8 112 -11
125 -2 14 -6 66 -10 115 -3 50 -8 106 -10 125 -2 19 -6 74 -10 121 -3 47 -7
95 -9 105 -2 10 -7 65 -11 122 -3 57 -8 112 -10 122 -2 10 -6 61 -10 114 -3
52 -7 103 -9 113 -2 10 -7 63 -11 118 -3 55 -8 114 -10 130 -2 17 -7 70 -10
118 -4 49 -8 98 -10 110 -2 12 -6 63 -10 112 -3 50 -8 106 -10 125 -7 67 -16
185 -20 255 -3 39 -7 84 -9 100 -3 17 -8 71 -11 120 -3 50 -8 104 -10 120 -2
17 -7 71 -10 120 -4 50 -8 101 -10 115 -2 14 -7 67 -10 118 -4 52 -8 106 -10
120 -29 247 -25 344 19 432 10 19 606 624 1326 1345 1355 1358 1336 1338 1356
1437 4 18 8 1068 9 2333 1 2408 2 2370 -41 2455 -22 44 -100 122 -144 145 -88
45 13 44 -2398 42 -2228 -2 -2278 -2 -2322 -21 -25 -11 -83 -47 -130 -81 -77
-56 -461 -328 -1020 -723 -113 -80 -227 -162 -255 -182 -46 -34 -328 -234
-429 -304 -22 -16 -147 -104 -276 -196 -442 -314 -991 -703 -1210 -857 -63
-45 -149 -106 -190 -135 -41 -30 -136 -97 -210 -150 -74 -52 -286 -202 -470
-333 -184 -131 -355 -246 -380 -257 -71 -32 -198 -30 -271 4 -31 14 -75 43
-99 64 -40 37 -100 126 -100 151 0 6 -5 24 -12 40 -6 15 -12 31 -12 34 -4 28
-75 113 -119 141 -81 54 -113 63 -212 63 -76 0 -99 -4 -146 -27 -31 -14 -75
-42 -97 -63 -39 -35 -102 -142 -102 -172 0 -29 -43 -106 -82 -149 -98 -107
-239 -143 -376 -98 -26 9 -90 46 -142 83 -82 58 -750 536 -805 577 -11 8 -123
88 -250 179 -126 90 -234 168 -240 172 -13 12 -540 389 -668 480 -56 39 -106
75 -112 80 -9 8 -172 125 -275 198 -25 17 -160 114 -300 215 -140 101 -430
310 -645 464 -214 154 -506 363 -648 465 -363 262 -432 308 -474 323 -56 18
-4570 22 -4628 3z m4308 -1005 c46 -17 360 -228 424 -285 10 -9 639 -460 787
-565 87 -61 549 -393 561 -403 14 -11 228 -165 291 -209 28 -20 118 -85 200
-144 82 -59 169 -122 194 -139 25 -17 113 -81 195 -140 83 -60 283 -204 445
-320 162 -116 394 -283 515 -370 441 -317 754 -542 925 -664 96 -69 177 -127
180 -131 3 -3 24 -18 47 -33 104 -71 162 -165 170 -277 5 -64 2 -78 -101 -575
-3 -11 -20 -94 -40 -185 -19 -91 -37 -176 -40 -190 -3 -14 -26 -124 -51 -245
-26 -121 -49 -229 -50 -240 -2 -11 -11 -54 -20 -95 -9 -41 -32 -151 -51 -245
-20 -93 -47 -222 -60 -285 -23 -107 -44 -212 -48 -235 -1 -5 -5 -16 -10 -23
-4 -7 -6 -16 -3 -18 3 -3 1 -20 -4 -37 -5 -18 -34 -153 -64 -302 -31 -148 -60
-286 -65 -305 -5 -19 -11 -48 -13 -65 -4 -23 -55 -270 -83 -400 -3 -11 -9 -40
-14 -65 -32 -158 -62 -300 -70 -330 -5 -19 -11 -51 -14 -71 -3 -20 -8 -42 -10
-50 -3 -8 -7 -25 -10 -39 -2 -14 -20 -97 -39 -185 -20 -88 -56 -254 -82 -370
-25 -115 -54 -248 -65 -295 -10 -47 -35 -161 -55 -255 -19 -93 -40 -186 -45
-205 -7 -28 -110 -493 -126 -575 -8 -40 -13 -62 -39 -180 -15 -66 -28 -127
-30 -135 -10 -43 -55 -252 -59 -272 -3 -13 -37 -167 -75 -343 -39 -176 -73
-329 -75 -340 -42 -209 -91 -410 -110 -450 -30 -62 -65 -100 -186 -201 -52
-43 -100 -83 -106 -89 -6 -5 -22 -19 -35 -30 -50 -41 -154 -130 -167 -142 -7
-7 -34 -29 -60 -50 -26 -21 -49 -40 -52 -43 -4 -5 -240 -205 -396 -337 -27
-23 -62 -53 -79 -68 -205 -180 -292 -218 -433 -189 -69 14 -115 38 -208 107
-32 24 -102 75 -154 113 -52 39 -126 93 -165 121 -38 29 -194 142 -345 252
-151 110 -279 204 -285 208 -5 5 -35 26 -65 48 -30 22 -59 43 -65 48 -20 15
-141 103 -162 117 -67 46 -1311 960 -1344 988 -21 19 -52 62 -71 100 -31 62
-33 73 -33 172 0 58 4 143 8 190 10 99 12 122 22 250 4 52 9 111 10 130 2 19
6 67 9 105 4 39 8 93 11 120 2 28 7 84 10 125 3 41 8 98 10 125 10 111 14 163
20 235 3 41 8 93 10 115 2 22 7 76 10 120 4 44 8 98 10 120 2 22 6 74 10 115
3 41 8 98 10 125 3 28 7 82 10 120 5 64 7 94 20 240 2 28 7 82 10 120 13 156
15 182 20 230 2 28 7 86 11 130 3 44 8 98 9 120 2 22 6 76 10 120 3 44 8 96
10 115 2 19 7 71 10 115 6 84 13 172 20 243 22 214 17 287 -28 376 -12 25
-495 516 -1336 1357 -1413 1414 -1361 1358 -1378 1479 -5 30 -8 773 -7 1650 1
1493 2 1598 18 1644 54 151 169 235 336 246 47 3 776 4 1620 3 l1535 -1 58
-22z m14728 6 c102 -31 190 -111 233 -213 20 -47 20 -66 22 -1678 0 -1013 -3
-1643 -9 -1665 -28 -103 -15 -89 -1362 -1435 -721 -720 -1321 -1324 -1333
-1342 -47 -66 -62 -135 -56 -251 2 -59 6 -118 8 -132 2 -14 7 -70 11 -125 4
-55 9 -108 11 -117 1 -10 6 -62 9 -115 3 -54 8 -109 10 -123 2 -14 6 -65 10
-115 3 -49 8 -106 10 -125 2 -19 7 -69 10 -110 3 -41 7 -93 9 -115 2 -22 7
-76 10 -120 4 -44 9 -96 11 -115 2 -19 7 -73 10 -120 3 -47 7 -103 10 -125 2
-22 7 -74 10 -115 3 -41 8 -95 10 -120 2 -25 7 -76 10 -115 12 -144 28 -340
40 -480 4 -47 12 -147 20 -240 2 -22 6 -74 10 -115 3 -41 8 -93 10 -115 7 -93
16 -203 20 -250 4 -53 14 -164 21 -230 4 -49 15 -195 18 -250 4 -81 -33 -182
-92 -252 -18 -20 -97 -80 -327 -245 -55 -40 -102 -75 -105 -78 -3 -3 -36 -28
-75 -55 -38 -27 -82 -58 -96 -69 -15 -12 -39 -30 -54 -41 -45 -32 -321 -234
-631 -460 -158 -115 -306 -223 -330 -240 -23 -16 -131 -96 -241 -176 -933
-686 -899 -664 -1037 -657 -52 3 -98 12 -127 25 -36 16 -187 133 -255 197 -6
6 -22 20 -35 31 -91 76 -485 410 -489 415 -4 5 -360 307 -429 365 -93 77 -98
84 -111 147 -7 35 -14 68 -16 73 -1 6 -4 21 -7 35 -3 14 -24 111 -47 215 -23
105 -44 197 -45 205 -2 8 -18 78 -35 155 -17 77 -33 151 -36 165 -10 46 -34
155 -63 285 -16 72 -32 141 -34 155 -3 14 -22 99 -42 190 -20 91 -39 176 -41
190 -3 14 -14 63 -24 110 -11 47 -35 158 -55 248 -19 89 -50 233 -69 320 -19
86 -67 303 -106 482 -39 179 -77 354 -86 390 -8 36 -17 76 -19 90 -2 14 -9 43
-14 65 -15 58 -99 444 -106 485 -3 19 -10 51 -15 70 -17 68 -88 388 -106 478
-15 74 -55 256 -58 261 -2 3 -7 23 -10 43 -3 20 -20 99 -37 175 -17 76 -33
149 -35 163 -5 25 -21 100 -56 255 -22 103 -21 97 -43 190 -9 39 -18 86 -21
105 -3 19 -8 38 -10 41 -2 3 -6 19 -8 35 -3 16 -8 38 -10 49 -17 75 -50 227
-57 260 -4 22 -12 60 -18 85 -14 63 -85 385 -111 505 -57 266 -172 786 -184
837 -38 162 6 305 123 395 26 21 113 84 192 141 79 57 216 155 304 218 88 63
168 121 178 129 9 8 20 15 23 15 2 0 10 5 17 10 14 13 144 107 502 363 143
103 269 193 280 201 121 88 476 342 530 381 39 27 75 53 80 58 6 4 62 45 125
90 236 169 505 362 515 370 6 4 57 42 115 83 58 41 114 82 125 90 11 8 121 87
245 176 124 88 235 168 246 177 12 9 32 23 44 31 12 8 52 37 88 64 37 26 132
95 212 152 80 57 181 130 225 161 44 32 90 65 102 73 12 8 90 65 175 126 380
275 448 322 489 339 26 11 82 21 134 24 50 3 776 5 1616 4 1372 -1 1531 -3
1580 -17z m-8956 -6213 c71 -24 139 -95 160 -167 9 -30 18 -68 21 -83 3 -15
12 -55 20 -88 9 -33 44 -181 79 -330 35 -148 118 -502 185 -785 146 -619 230
-978 235 -1005 3 -11 9 -38 14 -60 14 -56 74 -307 106 -445 14 -63 30 -131 36
-150 5 -19 34 -143 64 -275 31 -132 67 -287 81 -345 14 -58 28 -116 30 -129 3
-12 11 -51 19 -85 13 -58 18 -79 30 -143 3 -16 8 -36 11 -45 3 -10 7 -30 10
-45 3 -16 9 -44 14 -63 5 -19 11 -46 14 -60 9 -51 38 -187 56 -265 10 -45 21
-92 24 -105 4 -21 49 -230 61 -280 42 -181 42 -252 4 -337 -30 -64 -40 -75
-268 -312 -108 -112 -223 -231 -256 -266 -628 -654 -612 -639 -680 -671 -52
-25 -72 -29 -145 -29 -156 1 -188 21 -385 239 -44 49 -87 97 -95 106 -8 9 -49
54 -90 101 -41 46 -79 89 -85 95 -5 6 -39 43 -75 83 -36 40 -74 83 -85 95 -11
12 -51 57 -90 100 -38 44 -79 88 -90 100 -11 12 -54 59 -95 105 -41 47 -90
101 -108 120 -92 98 -127 184 -119 294 5 74 7 85 32 197 8 36 26 121 40 190
14 69 37 175 50 235 13 61 26 124 28 140 3 17 21 104 41 195 19 91 37 176 40
190 2 14 17 81 31 150 14 69 29 136 31 150 3 14 11 53 19 88 8 34 17 74 20 90
2 15 21 104 41 197 19 94 38 181 40 195 2 14 11 56 20 93 8 38 24 114 35 170
11 56 24 118 29 137 5 19 11 49 14 65 6 34 45 223 76 365 11 52 23 109 26 125
3 17 21 104 41 195 19 91 37 176 40 190 2 14 17 86 33 161 16 74 31 149 34
165 6 34 52 235 90 394 14 58 27 116 29 130 3 14 31 133 61 265 31 132 66 281
77 330 48 211 71 258 147 302 76 45 148 53 227 26z"/>
</g>
</svg>
