<?xml version="1.0" standalone="no"?>
<!DOCTYPE svg PUBLIC "-//W3C//DTD SVG 20010904//EN"
 "http://www.w3.org/TR/2001/REC-SVG-20010904/DTD/svg10.dtd">
<svg version="1.0" xmlns="http://www.w3.org/2000/svg"
 width="260.000000pt" height="260.000000pt" viewBox="0 0 260.000000 260.000000"
 preserveAspectRatio="xMidYMid meet">
<metadata>
Created by potrace 1.14, written by Peter Selinger 2001-2017
</metadata>
<g transform="translate(0.000000,260.000000) scale(0.100000,-0.100000)"
fill="#000000" stroke="none">
<path d="M259 2378 c0 -51 -1 -156 -2 -232 l-2 -139 -40 -14 c-45 -15 -102
-65 -117 -103 -17 -41 -21 -116 -8 -156 18 -54 73 -110 124 -125 l43 -13 1
-76 1 -76 -37 -14 c-122 -44 -176 -173 -121 -288 23 -48 83 -97 130 -107 l29
-7 -1 -79 c-1 -61 -4 -79 -15 -79 -26 0 -91 -39 -117 -69 -80 -96 -51 -257 56
-309 23 -12 50 -23 59 -26 15 -5 17 -22 15 -171 l-2 -165 896 0 895 0 0 462
-1 463 -25 1 c-52 3 -50 21 -50 -430 l0 -423 -819 0 -819 0 -1 299 0 298 72 0
72 0 1 35 c2 38 7 36 -93 37 l-52 0 2 247 2 246 68 -1 c48 0 67 3 68 13 5 61
9 58 -68 61 l-71 3 -1 244 -1 245 69 0 c69 0 69 0 73 30 3 16 2 34 -1 38 -3 5
-32 9 -64 8 -32 -1 -62 1 -67 4 -5 3 -8 91 -7 195 l2 190 818 0 817 1 0 -173
0 -173 38 0 38 0 0 210 0 210 -893 0 -893 0 -1 -92z m0 -577 c0 -117 -2 -129
-17 -124 -84 31 -114 124 -65 200 14 21 57 52 75 53 4 0 7 -58 7 -129z m0
-566 c1 -139 -3 -146 -58 -100 -62 53 -62 147 0 199 54 46 58 40 58 -99z m0
-569 c0 -123 0 -124 -22 -119 -52 13 -94 87 -83 147 8 44 76 113 97 100 4 -2
8 -60 8 -128z"/>
<path d="M2155 2021 c-25 -13 -233 -214 -547 -528 l-506 -508 -16 -75 c-9 -41
-27 -127 -41 -190 l-24 -115 21 -22 c24 -26 10 -27 241 23 l162 35 508 507
c354 353 514 520 529 550 27 56 21 143 -13 199 -69 114 -218 172 -314 124z
m138 -67 c62 -19 123 -92 131 -159 6 -47 -10 -80 -68 -140 l-44 -45 -121 119
-120 119 54 53 c68 67 94 76 168 53z m-43 -398 c0 -5 -12 -20 -26 -33 l-27
-25 -118 118 -119 118 30 31 30 31 115 -116 c63 -64 115 -120 115 -124z m-292
78 l44 -47 -358 -358 -359 -359 -47 47 -48 48 357 357 c197 197 360 358 362
358 3 0 24 -21 49 -46z m144 -146 c21 -23 38 -43 38 -45 0 -2 -160 -163 -356
-359 l-356 -357 -45 45 -44 44 356 357 c196 196 359 357 363 357 3 0 23 -19
44 -42z m-759 -789 c-3 -8 -222 -53 -228 -47 -6 5 16 124 36 200 l9 37 93 -92
c51 -51 92 -95 90 -98z"/>
<path d="M656 2001 c-1 -3 -2 -19 -2 -36 l1 -30 498 -3 497 -2 0 38 0 39 -496
-1 c-272 0 -496 -2 -498 -5z"/>
<path d="M673 1722 c-19 -3 -23 -10 -23 -38 l0 -34 444 0 444 0 -2 29 c-1 16
-5 33 -9 37 -7 7 -808 12 -854 6z"/>
<path d="M653 1403 l2 -38 313 0 c171 0 313 3 313 7 1 5 2 20 3 36 l1 27 -317
3 -317 2 2 -37z"/>
<path d="M656 1151 c-2 -3 -3 -19 -2 -36 l1 -30 146 -2 147 -1 4 29 c3 16 2
32 -1 37 -7 9 -290 12 -295 3z"/>
<path d="M667 870 c-15 -6 -21 -56 -8 -64 9 -6 112 -8 256 -7 39 1 40 2 40 36
0 34 -1 35 -40 36 -181 4 -237 3 -248 -1z"/>
</g>
</svg>
