<?xml version="1.0" standalone="no"?>
<!DOCTYPE svg PUBLIC "-//W3C//DTD SVG 20010904//EN"
 "http://www.w3.org/TR/2001/REC-SVG-20010904/DTD/svg10.dtd">
<svg version="1.0" xmlns="http://www.w3.org/2000/svg"
 width="500.000000pt" height="500.000000pt" viewBox="0 0 500.000000 500.000000"
 preserveAspectRatio="xMidYMid meet">
<metadata>
Created by potrace 1.14, written by Peter Selinger 2001-2017
</metadata>
<g transform="translate(0.000000,500.000000) scale(0.100000,-0.100000)"
fill="#000000" stroke="none">
<path d="M2328 4995 c-1 -1 -37 -5 -78 -9 -462 -40 -945 -239 -1326 -546 -194
-156 -421 -415 -555 -635 -150 -244 -289 -599 -323 -825 -3 -19 -13 -80 -22
-135 -19 -114 -26 -441 -13 -575 72 -725 431 -1356 1019 -1791 345 -255 771
-418 1225 -468 86 -9 454 -7 520 3 22 4 72 11 110 17 455 70 908 279 1250 578
132 116 326 330 400 441 17 25 33 47 36 50 12 10 127 206 162 276 51 101 111
249 147 362 31 96 36 113 46 162 3 14 9 41 14 60 38 144 55 323 55 560 -1 195
-13 324 -47 479 -11 51 -21 101 -23 110 -2 9 -18 63 -35 121 -95 317 -280 651
-503 908 -66 77 -236 240 -317 305 -353 284 -820 486 -1230 533 -25 3 -56 7
-70 10 -27 6 -436 14 -442 9z m-412 -940 c39 -26 55 -70 57 -158 l2 -82 185
-1 c102 0 190 1 196 3 6 2 11 37 12 84 3 118 33 163 118 174 49 7 101 -19 128
-64 14 -24 19 -54 20 -114 l1 -82 185 -1 c102 0 191 2 197 4 9 3 12 30 12 88
-1 76 2 88 25 119 57 74 171 68 217 -12 11 -18 17 -56 18 -108 2 -44 5 -82 7
-85 3 -2 71 -5 152 -6 81 0 163 -4 182 -9 102 -23 219 -113 268 -205 50 -94
50 -94 50 -1096 0 -522 -3 -960 -8 -987 -22 -113 -110 -231 -211 -282 -101
-52 -86 -51 -1244 -50 -594 1 -1096 5 -1115 9 -103 24 -226 120 -270 210 -50
104 -49 85 -49 1092 0 759 3 954 14 1001 28 120 111 224 221 275 81 38 105 42
282 42 l142 1 1 75 c1 91 2 101 23 132 15 23 37 38 76 52 23 8 80 -2 106 -19z"/>
<path d="M1460 3549 c-64 -7 -104 -32 -126 -76 -15 -32 -18 -66 -19 -228 0
-104 1 -197 3 -205 3 -13 141 -15 1178 -13 647 1 1179 4 1182 8 10 10 9 366
-1 405 -11 44 -61 97 -99 105 -26 6 -106 8 -235 6 l-53 -1 0 -76 c0 -130 -47
-189 -144 -181 -42 4 -55 10 -83 41 -21 23 -33 47 -34 66 -1 16 -2 57 -3 91
l-1 61 -180 -1 c-99 0 -188 -1 -197 -1 -16 0 -18 -11 -18 -80 0 -93 -15 -131
-63 -160 -41 -25 -93 -25 -134 0 -48 29 -63 67 -63 160 l0 80 -92 1 c-110 1
-219 1 -269 0 l-36 -1 0 -78 c0 -91 -14 -127 -62 -159 -65 -44 -151 -20 -184
50 -11 23 -17 61 -17 111 0 42 -3 76 -7 77 -44 4 -208 3 -243 -2z"/>
<path d="M1316 2760 c-1 -3 -2 -273 -1 -600 1 -663 -1 -640 70 -689 l35 -23
1072 0 c710 0 1082 4 1100 10 31 13 66 48 80 82 14 32 17 1209 4 1218 -12 7
-2357 9 -2360 2z"/>
</g>
</svg>
